<svg id="visual" viewBox="0 0 960 540" width="960" height="540" xmlns="http://www.w3.org/2000/svg" xmlns:xlink="http://www.w3.org/1999/xlink" version="1.1"><rect x="0" y="0" width="960" height="540" fill="#f4f4f4"></rect><path d="M0 358L32 361C64 364 128 370 192 372.7C256 375.3 320 374.7 384 360.5C448 346.3 512 318.7 576 311C640 303.3 704 315.7 768 315.7C832 315.7 896 303.3 928 297.2L960 291L960 541L928 541C896 541 832 541 768 541C704 541 640 541 576 541C512 541 448 541 384 541C320 541 256 541 192 541C128 541 64 541 32 541L0 541Z" fill="#b298dc"></path><path d="M0 451L32 449.3C64 447.7 128 444.3 192 440.2C256 436 320 431 384 422.7C448 414.3 512 402.7 576 402.7C640 402.7 704 414.3 768 414.3C832 414.3 896 402.7 928 396.8L960 391L960 541L928 541C896 541 832 541 768 541C704 541 640 541 576 541C512 541 448 541 384 541C320 541 256 541 192 541C128 541 64 541 32 541L0 541Z" fill="#6f2dbd"></path></svg>