<svg id="visual" viewBox="0 0 900 600" width="900" height="600" xmlns="http://www.w3.org/2000/svg" xmlns:xlink="http://www.w3.org/1999/xlink" version="1.1"><rect x="0" y="0" width="900" height="600" fill="#f4f4f4"></rect><defs><linearGradient id="grad1_0" x1="33.3%" y1="0%" x2="100%" y2="100%"><stop offset="20%" stop-color="#f4f4f4" stop-opacity="1"></stop><stop offset="80%" stop-color="#f4f4f4" stop-opacity="1"></stop></linearGradient></defs><defs><linearGradient id="grad2_0" x1="0%" y1="0%" x2="66.7%" y2="100%"><stop offset="20%" stop-color="#f4f4f4" stop-opacity="1"></stop><stop offset="80%" stop-color="#f4f4f4" stop-opacity="1"></stop></linearGradient></defs><g transform="translate(900, 0)"><path d="M0 486.7C-60.9 473.8 -121.9 460.9 -182.2 439.8C-242.5 418.6 -302.1 389.2 -344.2 344.2C-386.2 299.2 -410.6 238.7 -431.5 178.7C-452.3 118.8 -469.5 59.4 -486.7 0L0 0Z" fill="#6F2DBD"></path></g><g transform="translate(0, 600)"><path d="M0 -486.7C52.8 -449.1 105.6 -411.4 160.7 -388C215.9 -364.6 273.3 -355.4 325.3 -325.3C377.2 -295.1 423.7 -244 449.7 -186.3C475.7 -128.6 481.2 -64.3 486.7 0L0 0Z" fill="#6F2DBD"></path></g></svg>