<svg id="visual" viewBox="0 0 675 900" width="675" height="900" xmlns="http://www.w3.org/2000/svg" xmlns:xlink="http://www.w3.org/1999/xlink" version="1.1"><rect x="0" y="0" width="675" height="900" fill="#f4f4f4"></rect><path d="M0 602L28.2 608.5C56.3 615 112.7 628 169 633C225.3 638 281.7 635 337.8 623.8C394 612.7 450 593.3 506.2 596.3C562.3 599.3 618.7 624.7 646.8 637.3L675 650L675 901L646.8 901C618.7 901 562.3 901 506.2 901C450 901 394 901 337.8 901C281.7 901 225.3 901 169 901C112.7 901 56.3 901 28.2 901L0 901Z" fill="#b298dc"></path><path d="M0 762L28.2 759.5C56.3 757 112.7 752 169 750.7C225.3 749.3 281.7 751.7 337.8 740.8C394 730 450 706 506.2 698.2C562.3 690.3 618.7 698.7 646.8 702.8L675 707L675 901L646.8 901C618.7 901 562.3 901 506.2 901C450 901 394 901 337.8 901C281.7 901 225.3 901 169 901C112.7 901 56.3 901 28.2 901L0 901Z" fill="#6f2dbd"></path></svg>