<svg id="visual" viewBox="0 0 960 540" width="960" height="540" xmlns="http://www.w3.org/2000/svg" xmlns:xlink="http://www.w3.org/1999/xlink" version="1.1"><rect x="0" y="0" width="960" height="540" fill="#6F2DBD"></rect><path d="M0 252L26.7 251.7C53.3 251.3 106.7 250.7 160 247.8C213.3 245 266.7 240 320 249.8C373.3 259.7 426.7 284.3 480 282C533.3 279.7 586.7 250.3 640 236.3C693.3 222.3 746.7 223.7 800 221.8C853.3 220 906.7 215 933.3 212.5L960 210L960 0L933.3 0C906.7 0 853.3 0 800 0C746.7 0 693.3 0 640 0C586.7 0 533.3 0 480 0C426.7 0 373.3 0 320 0C266.7 0 213.3 0 160 0C106.7 0 53.3 0 26.7 0L0 0Z" fill="#b298dc"></path><path d="M0 202L26.7 198.5C53.3 195 106.7 188 160 186.5C213.3 185 266.7 189 320 191.7C373.3 194.3 426.7 195.7 480 188.7C533.3 181.7 586.7 166.3 640 166.5C693.3 166.7 746.7 182.3 800 193.3C853.3 204.3 906.7 210.7 933.3 213.8L960 217L960 0L933.3 0C906.7 0 853.3 0 800 0C746.7 0 693.3 0 640 0C586.7 0 533.3 0 480 0C426.7 0 373.3 0 320 0C266.7 0 213.3 0 160 0C106.7 0 53.3 0 26.7 0L0 0Z" fill="#9165ce"></path><path d="M0 105L26.7 110.7C53.3 116.3 106.7 127.7 160 125.3C213.3 123 266.7 107 320 98.2C373.3 89.3 426.7 87.7 480 93.2C533.3 98.7 586.7 111.3 640 120.2C693.3 129 746.7 134 800 135.5C853.3 137 906.7 135 933.3 134L960 133L960 0L933.3 0C906.7 0 853.3 0 800 0C746.7 0 693.3 0 640 0C586.7 0 533.3 0 480 0C426.7 0 373.3 0 320 0C266.7 0 213.3 0 160 0C106.7 0 53.3 0 26.7 0L0 0Z" fill="#6f2dbd"></path></svg>