<svg id="visual" viewBox="0 0 960 540" width="960" height="540" xmlns="http://www.w3.org/2000/svg" xmlns:xlink="http://www.w3.org/1999/xlink" version="1.1"><rect x="0" y="0" width="960" height="540" fill="#f4f4f4"></rect><path d="M0 144L26.7 136.3C53.3 128.7 106.7 113.3 160 106C213.3 98.7 266.7 99.3 320 100.3C373.3 101.3 426.7 102.7 480 102.8C533.3 103 586.7 102 640 106.7C693.3 111.3 746.7 121.7 800 122.2C853.3 122.7 906.7 113.3 933.3 108.7L960 104L960 0L933.3 0C906.7 0 853.3 0 800 0C746.7 0 693.3 0 640 0C586.7 0 533.3 0 480 0C426.7 0 373.3 0 320 0C266.7 0 213.3 0 160 0C106.7 0 53.3 0 26.7 0L0 0Z" fill="#b298dc"></path><path d="M0 83L26.7 81.7C53.3 80.3 106.7 77.7 160 75C213.3 72.3 266.7 69.7 320 69.7C373.3 69.7 426.7 72.3 480 74.2C533.3 76 586.7 77 640 74.2C693.3 71.3 746.7 64.7 800 61.7C853.3 58.7 906.7 59.3 933.3 59.7L960 60L960 0L933.3 0C906.7 0 853.3 0 800 0C746.7 0 693.3 0 640 0C586.7 0 533.3 0 480 0C426.7 0 373.3 0 320 0C266.7 0 213.3 0 160 0C106.7 0 53.3 0 26.7 0L0 0Z" fill="#6f2dbd"></path></svg>