<svg id="visual" viewBox="0 0 540 960" width="540" height="960" xmlns="http://www.w3.org/2000/svg" xmlns:xlink="http://www.w3.org/1999/xlink" version="1.1"><rect x="0" y="0" width="540" height="960" fill="#f4f4f4"></rect><path d="M0 300L18 288.7C36 277.3 72 254.7 108 249.5C144 244.3 180 256.7 216 260.2C252 263.7 288 258.3 324 261.7C360 265 396 277 432 273.2C468 269.3 504 249.7 522 239.8L540 230L540 0L522 0C504 0 468 0 432 0C396 0 360 0 324 0C288 0 252 0 216 0C180 0 144 0 108 0C72 0 36 0 18 0L0 0Z" fill="#b298dc"></path><path d="M0 167L18 165.8C36 164.7 72 162.3 108 164C144 165.7 180 171.3 216 167.5C252 163.7 288 150.3 324 146.5C360 142.7 396 148.3 432 155.3C468 162.3 504 170.7 522 174.8L540 179L540 0L522 0C504 0 468 0 432 0C396 0 360 0 324 0C288 0 252 0 216 0C180 0 144 0 108 0C72 0 36 0 18 0L0 0Z" fill="#6f2dbd"></path></svg>