<svg id="visual" viewBox="0 0 960 540" width="960" height="540" xmlns="http://www.w3.org/2000/svg" xmlns:xlink="http://www.w3.org/1999/xlink" version="1.1"><rect x="0" y="0" width="960" height="540" fill="#f4f4f4"></rect><path d="M0 427L32 425.3C64 423.7 128 420.3 192 420C256 419.7 320 422.3 384 417.7C448 413 512 401 576 395C640 389 704 389 768 389.7C832 390.3 896 391.7 928 392.3L960 393L960 541L928 541C896 541 832 541 768 541C704 541 640 541 576 541C512 541 448 541 384 541C320 541 256 541 192 541C128 541 64 541 32 541L0 541Z" fill="#b298dc"></path><path d="M0 460L32 459.8C64 459.7 128 459.3 192 457C256 454.7 320 450.3 384 446.2C448 442 512 438 576 442C640 446 704 458 768 463.7C832 469.3 896 468.7 928 468.3L960 468L960 541L928 541C896 541 832 541 768 541C704 541 640 541 576 541C512 541 448 541 384 541C320 541 256 541 192 541C128 541 64 541 32 541L0 541Z" fill="#9165ce"></path><path d="M0 475L32 474.2C64 473.3 128 471.7 192 476C256 480.3 320 490.7 384 490.7C448 490.7 512 480.3 576 475.7C640 471 704 472 768 475.5C832 479 896 485 928 488L960 491L960 541L928 541C896 541 832 541 768 541C704 541 640 541 576 541C512 541 448 541 384 541C320 541 256 541 192 541C128 541 64 541 32 541L0 541Z" fill="#6f2dbd"></path></svg>