<svg id="visual" viewBox="0 0 900 600" width="900" height="600" xmlns="http://www.w3.org/2000/svg" xmlns:xlink="http://www.w3.org/1999/xlink" version="1.1"><rect x="0" y="0" width="900" height="600" fill="#f4f4f4"></rect><path d="M0 434L13.7 428.8C27.3 423.7 54.7 413.3 82 413.5C109.3 413.7 136.7 424.3 163.8 434.5C191 444.7 218 454.3 245.2 446.8C272.3 439.3 299.7 414.7 327 400.3C354.3 386 381.7 382 409 385.8C436.3 389.7 463.7 401.3 491 405.2C518.3 409 545.7 405 573 409.5C600.3 414 627.7 427 654.8 423.3C682 419.7 709 399.3 736.2 391.8C763.3 384.3 790.7 389.7 818 403.7C845.3 417.7 872.7 440.3 886.3 451.7L900 463L900 601L886.3 601C872.7 601 845.3 601 818 601C790.7 601 763.3 601 736.2 601C709 601 682 601 654.8 601C627.7 601 600.3 601 573 601C545.7 601 518.3 601 491 601C463.7 601 436.3 601 409 601C381.7 601 354.3 601 327 601C299.7 601 272.3 601 245.2 601C218 601 191 601 163.8 601C136.7 601 109.3 601 82 601C54.7 601 27.3 601 13.7 601L0 601Z" fill="#6F2DBD" stroke-linecap="round" stroke-linejoin="miter"></path></svg>